<mxfile host="app.diagrams.net" modified="2024-04-24T07:38:42.543Z" agent="Mozilla/5.0 (Windows NT 10.0; Win64; x64; rv:125.0) Gecko/20100101 Firefox/125.0" version="24.2.8" etag="EV-0FLFb21UaFKhuUqCM" type="github">
  <diagram name="Seite-1" id="JyO19XCZA-VfbG-IncaB">
    <mxGraphModel>
      <root>
        <mxCell id="0" />
        <mxCell id="1" parent="0" />
      </root>
    </mxGraphModel>
  </diagram>
</mxfile>
